<svg xmlns="http://www.w3.org/2000/svg" xmlns:xlink="http://www.w3.org/1999/xlink" fill="none" version="1.1" width="57" height="51" viewBox="0 0 57 51"><g><g><path d="M6,20L0,20L0,45Q0,45.1473,0.007229999999999848,45.294399999999996Q0.014450000000000074,45.441500000000005,0.028889999999999638,45.5881Q0.04333000000000009,45.734700000000004,0.06494,45.8804Q0.0865499999999999,46.0261,0.11528999999999989,46.170500000000004Q0.14402000000000026,46.315,0.1798099999999998,46.457899999999995Q0.21560000000000024,46.6008,0.2583599999999997,46.7417Q0.30112000000000005,46.8827,0.35074000000000005,47.0213Q0.40036000000000005,47.16,0.4567199999999998,47.296099999999996Q0.51309,47.4322,0.5760699999999996,47.5653Q0.6390399999999996,47.698499999999996,0.7084700000000002,47.8284Q0.7779100000000003,47.9583,0.8536299999999999,48.084599999999995Q0.9293500000000003,48.210899999999995,1.0111800000000004,48.3334Q1.0930099999999996,48.4559,1.1807600000000003,48.574200000000005Q1.2685000000000004,48.692499999999995,1.3619399999999997,48.8064Q1.45538,48.9202,1.55429,49.029399999999995Q1.6532099999999996,49.1385,1.7573600000000003,49.242599999999996Q1.86151,49.3468,1.97065,49.4457Q2.07978,49.5446,2.19364,49.6381Q2.3075,49.7315,2.4258,49.819199999999995Q2.54411,49.907,2.66658,49.9888Q2.78905,50.0706,2.91538,50.1464Q3.04172,50.2221,3.17162,50.2915Q3.30152,50.361000000000004,3.43467,50.4239Q3.56782,50.4869,3.7039,50.5433Q3.83998,50.599599999999995,3.97866,50.6493Q4.11734,50.698899999999995,4.25829,50.7416Q4.39924,50.784400000000005,4.54212,50.8202Q4.6850000000000005,50.856,4.82946,50.884699999999995Q4.97392,50.913399999999996,5.119617,50.9351Q5.265315,50.9567,5.411897,50.9711Q5.55848,50.9855,5.705594,50.9928Q5.852708,51,6,51L51,51Q51.1473,51,51.2944,50.9928Q51.4415,50.9855,51.5881,50.9711Q51.7347,50.9567,51.8804,50.9351Q52.0261,50.913399999999996,52.1705,50.884699999999995Q52.315,50.856,52.4579,50.8202Q52.6008,50.784400000000005,52.7417,50.7416Q52.8827,50.698899999999995,53.0213,50.6493Q53.16,50.599599999999995,53.2961,50.5433Q53.4322,50.4869,53.5653,50.4239Q53.6985,50.361000000000004,53.8284,50.2915Q53.9583,50.2221,54.0846,50.1464Q54.2109,50.0706,54.3334,49.9888Q54.4559,49.907,54.5742,49.819199999999995Q54.6925,49.7315,54.8064,49.6381Q54.9202,49.5446,55.0294,49.4457Q55.1385,49.3468,55.2426,49.242599999999996Q55.3468,49.1385,55.4457,49.029399999999995Q55.5446,48.9202,55.6381,48.8064Q55.7315,48.692499999999995,55.8192,48.574200000000005Q55.907,48.4559,55.9888,48.3334Q56.0706,48.210899999999995,56.1464,48.084599999999995Q56.2221,47.9583,56.2915,47.8284Q56.361,47.698499999999996,56.4239,47.5653Q56.4869,47.4322,56.5433,47.296099999999996Q56.5996,47.16,56.6493,47.0213Q56.6989,46.8827,56.7416,46.7417Q56.7844,46.6008,56.8202,46.457899999999995Q56.856,46.315,56.8847,46.170500000000004Q56.9134,46.0261,56.9351,45.8804Q56.9567,45.734700000000004,56.9711,45.5881Q56.9855,45.441500000000005,56.9928,45.294399999999996Q57,45.1473,57,45L57,20L51,20L51,45L6,45L6,20Z" fill-rule="evenodd" fill="#FFFFFF" fill-opacity="1"/></g><g transform="matrix(-1,0,0,-1,98,80)"><g><rect x="65" y="40" width="8" height="40" rx="4" fill="#FFFFFF" fill-opacity="1"/></g><g transform="matrix(0.7071067690849304,0.7071067690849304,-0.7071067690849304,0.7071067690849304,48.005639002592375,-35.89586265298624)"><rect x="67.33296012878418" y="40" width="8.642243385314941" height="25.926729202270508" rx="4.321121692657471" fill="#FFFFFF" fill-opacity="1"/></g><g transform="matrix(0.7071067690849304,-0.7071067690849304,0.7071067690849304,0.7071067690849304,-13.697351839636582,59.15360209694299)"><rect x="64.55603790283203" y="46.11096906661987" width="8.642243385314941" height="25.926729202270508" rx="4.321121692657471" fill="#FFFFFF" fill-opacity="1"/></g></g></g></svg>