<svg xmlns="http://www.w3.org/2000/svg" xmlns:xlink="http://www.w3.org/1999/xlink" fill="none" version="1.1" width="45" height="45" viewBox="0 0 45 45"><g><g><path d="M22.5,45Q23.0523,45,23.604,44.9729Q24.1557,44.9458,24.7054,44.8917Q25.2551,44.8375,25.8014,44.7565Q26.3478,44.6754,26.8895,44.5677Q27.4313,44.4599,27.9671,44.3257Q28.5028,44.1915,29.0314,44.0312Q29.56,43.8708,30.08,43.6847Q30.6001,43.4987,31.1104,43.2873Q31.6207,43.0759,32.12,42.8398Q32.6193,42.6036,33.1064,42.3432Q33.5936,42.0829,34.0673,41.7989Q34.5411,41.5149,35.0003,41.2081Q35.4596,40.9012,35.9032,40.5722Q36.3469,40.2431,36.7738,39.8927Q37.2008,39.5423,37.6101,39.1714Q38.0193,38.8005,38.4099,38.4099Q38.8005,38.0193,39.1714,37.6101Q39.5423,37.2008,39.8927,36.7738Q40.2431,36.3469,40.5722,35.9032Q40.9012,35.4596,41.2081,35.0003Q41.5149,34.5411,41.7989,34.0673Q42.0829,33.5935,42.3432,33.1064Q42.6036,32.6193,42.8398,32.12Q43.0759,31.6207,43.2873,31.1104Q43.4987,30.6001,43.6847,30.08Q43.8708,29.56,44.0312,29.0314Q44.1915,28.5028,44.3257,27.9671Q44.4599,27.4313,44.5677,26.8895Q44.6754,26.3478,44.7565,25.8014Q44.8375,25.2551,44.8917,24.7054Q44.9458,24.1557,44.9729,23.604Q45,23.0523,45,22.5Q45,21.9477,44.9729,21.396Q44.9458,20.8443,44.8917,20.2946Q44.8375,19.7449,44.7565,19.1986Q44.6754,18.6522,44.5677,18.1105Q44.4599,17.5687,44.3257,17.0329Q44.1915,16.4972,44.0312,15.9686Q43.8708,15.44,43.6847,14.92Q43.4987,14.3999,43.2873,13.8896Q43.0759,13.3793,42.8398,12.88Q42.6036,12.3807,42.3432,11.8936Q42.0829,11.4064,41.7989,10.9327Q41.5149,10.4589,41.2081,9.99967Q40.9012,9.54041,40.5722,9.09676Q40.2431,8.65312,39.8927,8.22615Q39.5423,7.79918,39.1714,7.38992Q38.8005,6.98066,38.4099,6.5901Q38.0193,6.19953,37.6101,5.8286Q37.2008,5.45767,36.7738,5.10726Q36.3469,4.75686,35.9032,4.42783Q35.4596,4.0988,35.0003,3.79193Q34.5411,3.48507,34.0673,3.20111Q33.5935,2.91714,33.1064,2.65677Q32.6193,2.3964,32.12,2.16024Q31.6207,1.92408,31.1104,1.71271Q30.6001,1.50134,30.08,1.31526Q29.56,1.12918,29.0314,0.968842Q28.5028,0.808505,27.9671,0.674297Q27.4313,0.540088,26.8895,0.432331Q26.3478,0.324574,25.8014,0.243528Q25.2551,0.162483,24.7054,0.108344Q24.1557,0.0542045,23.604,0.0271022Q23.0523,0,22.5,0Q21.9477,0,21.396,0.0271022Q20.8443,0.0542045,20.2946,0.108344Q19.7449,0.162483,19.1986,0.243528Q18.6522,0.324574,18.1105,0.432331Q17.5687,0.540088,17.0329,0.674297Q16.4972,0.808505,15.9686,0.968842Q15.44,1.12918,14.92,1.31526Q14.3999,1.50134,13.8896,1.71271Q13.3793,1.92408,12.88,2.16024Q12.3807,2.3964,11.8936,2.65677Q11.4064,2.91714,10.9327,3.20111Q10.4589,3.48507,9.99967,3.79193Q9.54041,4.0988,9.09676,4.42783Q8.65312,4.75686,8.22615,5.10726Q7.79918,5.45767,7.38992,5.8286Q6.98066,6.19953,6.5901,6.5901Q6.19953,6.98066,5.8286,7.38992Q5.45767,7.79918,5.10726,8.22615Q4.75686,8.65312,4.42783,9.09676Q4.0988,9.54041,3.79193,9.99967Q3.48507,10.4589,3.20111,10.9327Q2.91714,11.4064,2.65677,11.8936Q2.3964,12.3807,2.16024,12.88Q1.92408,13.3793,1.71271,13.8896Q1.50134,14.3999,1.31526,14.92Q1.12918,15.44,0.968842,15.9686Q0.808505,16.4972,0.674297,17.0329Q0.540088,17.5687,0.432331,18.1105Q0.324574,18.6522,0.243528,19.1986Q0.162483,19.7449,0.108344,20.2946Q0.0542045,20.8443,0.0271022,21.396Q0,21.9477,0,22.5Q0,23.0523,0.0271022,23.604Q0.0542045,24.1557,0.108344,24.7054Q0.162483,25.2551,0.243528,25.8014Q0.324574,26.3478,0.432331,26.8895Q0.540088,27.4313,0.674297,27.9671Q0.808505,28.5028,0.968842,29.0314Q1.12918,29.56,1.31526,30.08Q1.50134,30.6001,1.71271,31.1104Q1.92408,31.6207,2.16024,32.12Q2.3964,32.6193,2.65677,33.1064Q2.91714,33.5936,3.20111,34.0673Q3.48507,34.5411,3.79193,35.0003Q4.0988,35.4596,4.42783,35.9032Q4.75686,36.3469,5.10726,36.7738Q5.45767,37.2008,5.8286,37.6101Q6.19953,38.0193,6.5901,38.4099Q6.98066,38.8005,7.38992,39.1714Q7.79918,39.5423,8.22615,39.8927Q8.65312,40.2431,9.09676,40.5722Q9.54041,40.9012,9.99967,41.2081Q10.4589,41.5149,10.9327,41.7989Q11.4064,42.0829,11.8936,42.3432Q12.3807,42.6036,12.88,42.8398Q13.3793,43.0759,13.8896,43.2873Q14.3999,43.4987,14.92,43.6847Q15.44,43.8708,15.9686,44.0312Q16.4972,44.1915,17.0329,44.3257Q17.5687,44.4599,18.1105,44.5677Q18.6522,44.6754,19.1986,44.7565Q19.7449,44.8375,20.2946,44.8917Q20.8443,44.9458,21.396,44.9729Q21.9477,45,22.5,45ZM22.5,41Q22.9542,41,23.4078,40.9777Q23.8614,40.9554,24.3133,40.9109Q24.7653,40.8664,25.2145,40.7998Q25.6637,40.7331,26.1092,40.6445Q26.5546,40.5559,26.9951,40.4456Q27.4357,40.3352,27.8703,40.2034Q28.3049,40.0716,28.7325,39.9186Q29.1601,39.7656,29.5796,39.5918Q29.9992,39.418,30.4098,39.2238Q30.8203,39.0296,31.2208,38.8155Q31.6214,38.6015,32.0109,38.368Q32.4004,38.1345,32.778,37.8822Q33.1557,37.6299,33.5204,37.3593Q33.8852,37.0888,34.2363,36.8007Q34.5873,36.5126,34.9238,36.2076Q35.2603,35.9026,35.5815,35.5815Q35.9026,35.2603,36.2076,34.9238Q36.5126,34.5873,36.8007,34.2363Q37.0888,33.8852,37.3593,33.5204Q37.6299,33.1557,37.8822,32.778Q38.1345,32.4004,38.368,32.0109Q38.6015,31.6214,38.8155,31.2208Q39.0296,30.8203,39.2238,30.4098Q39.418,29.9992,39.5918,29.5796Q39.7656,29.1601,39.9186,28.7325Q40.0716,28.3049,40.2034,27.8703Q40.3352,27.4357,40.4456,26.9951Q40.5559,26.5546,40.6445,26.1092Q40.7331,25.6637,40.7998,25.2145Q40.8664,24.7653,40.9109,24.3133Q40.9554,23.8614,40.9777,23.4078Q41,22.9542,41,22.5Q41,22.0459,40.9777,21.5922Q40.9554,21.1386,40.9109,20.6867Q40.8664,20.2347,40.7998,19.7855Q40.7331,19.3363,40.6445,18.8908Q40.5559,18.4454,40.4456,18.0049Q40.3352,17.5643,40.2034,17.1297Q40.0716,16.6951,39.9186,16.2675Q39.7656,15.8399,39.5918,15.4204Q39.418,15.0008,39.2238,14.5902Q39.0296,14.1797,38.8155,13.7792Q38.6015,13.3786,38.368,12.9891Q38.1345,12.5996,37.8822,12.2219Q37.6299,11.8443,37.3593,11.4796Q37.0888,11.1148,36.8007,10.7637Q36.5126,10.4127,36.2076,10.0762Q35.9026,9.73966,35.5815,9.41852Q35.2603,9.09739,34.9238,8.7924Q34.5873,8.48742,34.2363,8.19931Q33.8852,7.9112,33.5204,7.64066Q33.1557,7.37012,32.778,7.11781Q32.4004,6.8655,32.0109,6.63202Q31.6214,6.39854,31.2208,6.18446Q30.8203,5.97037,30.4098,5.7762Q29.9992,5.58202,29.5796,5.40823Q29.1601,5.23443,28.7325,5.08143Q28.3049,4.92844,27.8703,4.7966Q27.4357,4.66477,26.9951,4.55442Q26.5546,4.44407,26.1092,4.35547Q25.6637,4.26687,25.2145,4.20023Q24.7653,4.1336,24.3133,4.08908Q23.8614,4.04457,23.4078,4.02228Q22.9542,4,22.5,4Q22.0459,4,21.5922,4.02228Q21.1386,4.04457,20.6867,4.08908Q20.2347,4.1336,19.7855,4.20023Q19.3363,4.26687,18.8908,4.35547Q18.4454,4.44407,18.0049,4.55442Q17.5643,4.66477,17.1297,4.7966Q16.6951,4.92844,16.2675,5.08143Q15.8399,5.23443,15.4204,5.40823Q15.0008,5.58202,14.5902,5.7762Q14.1797,5.97037,13.7792,6.18446Q13.3786,6.39854,12.9891,6.63202Q12.5996,6.8655,12.2219,7.11781Q11.8443,7.37012,11.4796,7.64066Q11.1148,7.9112,10.7637,8.19931Q10.4127,8.48742,10.0762,8.7924Q9.73966,9.09739,9.41852,9.41852Q9.09739,9.73966,8.7924,10.0762Q8.48742,10.4127,8.19931,10.7637Q7.9112,11.1148,7.64066,11.4796Q7.37012,11.8443,7.11781,12.2219Q6.8655,12.5996,6.63202,12.9891Q6.39854,13.3786,6.18446,13.7792Q5.97037,14.1797,5.7762,14.5902Q5.58202,15.0008,5.40823,15.4204Q5.23443,15.8399,5.08143,16.2675Q4.92844,16.6951,4.7966,17.1297Q4.66477,17.5643,4.55442,18.0049Q4.44407,18.4454,4.35547,18.8908Q4.26687,19.3363,4.20023,19.7855Q4.1336,20.2347,4.08908,20.6867Q4.04457,21.1386,4.02228,21.5922Q4,22.0459,4,22.5Q4,22.9542,4.02228,23.4078Q4.04457,23.8614,4.08908,24.3133Q4.1336,24.7653,4.20023,25.2145Q4.26687,25.6637,4.35547,26.1092Q4.44407,26.5546,4.55442,26.9951Q4.66477,27.4357,4.7966,27.8703Q4.92844,28.3049,5.08143,28.7325Q5.23443,29.1601,5.40823,29.5796Q5.58202,29.9992,5.7762,30.4098Q5.97037,30.8203,6.18446,31.2208Q6.39854,31.6214,6.63202,32.0109Q6.8655,32.4004,7.11781,32.778Q7.37012,33.1557,7.64066,33.5204Q7.9112,33.8852,8.19931,34.2363Q8.48742,34.5873,8.7924,34.9238Q9.09739,35.2603,9.41852,35.5815Q9.73966,35.9026,10.0762,36.2076Q10.4127,36.5126,10.7637,36.8007Q11.1148,37.0888,11.4796,37.3593Q11.8443,37.6299,12.2219,37.8822Q12.5996,38.1345,12.9891,38.368Q13.3786,38.6015,13.7792,38.8155Q14.1797,39.0296,14.5902,39.2238Q15.0008,39.418,15.4204,39.5918Q15.8399,39.7656,16.2675,39.9186Q16.6951,40.0716,17.1297,40.2034Q17.5643,40.3352,18.0049,40.4456Q18.4454,40.5559,18.8908,40.6445Q19.3363,40.7331,19.7855,40.7998Q20.2347,40.8664,20.6867,40.9109Q21.1386,40.9554,21.5922,40.9777Q22.0459,41,22.5,41Z" fill-rule="evenodd" fill="#A5A5A5" fill-opacity="1"/></g><g><g><ellipse cx="23" cy="31" rx="3" ry="3" fill="#A5A5A5" fill-opacity="1"/></g><g><path d="M23,10C21.37431,10,20.0857273,11.37164,20.187135,12.99416L20.875243,24.0039C20.945369,25.1259,21.875799999999998,26,23,26C24.124200000000002,26,25.05463,25.1259,25.124760000000002,24.0039L25.81287,12.99416C25.914270000000002,11.37164,24.62569,10,23,10Z" fill="#A5A5A5" fill-opacity="1"/></g></g></g></svg>