<svg xmlns="http://www.w3.org/2000/svg" xmlns:xlink="http://www.w3.org/1999/xlink" fill="none" version="1.1" width="200" height="234.00001525878906" viewBox="0 0 200 234.00001525878906"><defs><clipPath id="master_svg0_5_02"><rect x="0" y="0" width="200" height="234.00001525878906" rx="0"/></clipPath></defs><g clip-path="url(#master_svg0_5_02)"><g><g><path d="M193.46976037597656,123.29371563720703L191.96976037597656,124.68371563720703Q190.47976037597655,126.07371563720703,187.78976037597656,128.33371563720704Q185.09976037597656,130.59371563720703,182.39976037597657,132.24371563720703Q179.68976037597656,133.89371563720704,177.26976037597657,135.61371563720704Q174.84976037597656,137.33371563720704,172.62976037597656,138.48371563720704Q170.40976037597656,139.63371563720702,168.35976037597655,140.77371563720703Q166.29976037597658,141.90371563720703,163.04976037597658,143.76371563720704Q159.79976037597658,145.63371563720702,155.21976037597656,147.57371563720704Q150.63976037597655,149.50371563720702,147.43976037597656,151.15371563720703Q144.24976037597656,152.80371563720703,141.48976037597657,154.21371563720703Q138.73976037597657,155.62371563720703,135.98976037597657,156.85371563720702Q133.24976037597656,158.08371563720704,131.18976037597656,159.09371563720703Q129.13976037597655,160.10371563720702,126.16976037597657,161.17371563720704Q123.19976037597657,162.25371563720702,120.54976037597656,163.64371563720704Q117.90976037597656,165.02371563720703,115.06976037597656,166.06371563720703Q112.23976037597656,167.09371563720703,109.68976037597656,168.27371563720703Q107.12976037597656,169.44371563720702,104.18996037597657,170.61371563720704Q101.23996037597657,171.78371563720702,97.90996037597657,173.13371563720702Q94.57996037597657,174.48371563720704,92.66996037597656,175.42371563720704Q90.74996037597656,176.36371563720704,88.19996037597656,177.46371563720703Q85.63996037597656,178.55371563720703,83.27996037597656,179.60371563720702Q80.91996037597656,180.66371563720702,78.77996037597656,181.40371563720703Q76.63996037597656,182.14371563720704,74.39996037597656,183.43371563720703Q72.15996037597657,184.71371563720703,69.97996037597656,185.91371563720702Q67.79996037597655,187.11371563720704,65.67996037597656,187.99371563720703Q63.569960375976564,188.87371563720703,61.669960375976565,189.95371563720704Q59.75996037597656,191.04371563720704,57.889960375976564,192.12371563720703Q56.00996037597656,193.20371563720704,53.60996037597656,194.69371563720702Q51.209960375976564,196.19371563720702,49.059960375976566,197.28371563720702Q46.919960375976565,198.37371563720703,44.489960375976565,199.95371563720704Q42.059960375976566,201.54371563720704,40.08996037597656,202.54371563720704Q38.11996037597656,203.54371563720704,35.599960375976565,204.86371563720704Q33.069960375976564,206.19371563720702,34.67996037597656,204.55371563720703Q36.29996037597657,202.91371563720702,34.75996037597656,204.97371563720702Q33.21996037597656,207.04371563720704,30.929960375976563,208.36371563720704Q28.629960375976562,209.67371563720704,26.059960375976562,211.63371563720702Q23.499960375976563,213.58371563720704,21.499960375976563,214.92371563720704Q19.489960375976562,216.25371563720702,17.429960375976563,217.62371563720703Q15.369990375976563,218.99371563720703,15.170000375976562,213.94371563720702Q14.970000375976563,208.89371563720704,12.550000375976563,208.06371563720703Q10.119990375976563,207.24371563720703,7.580000375976562,208.22371563720702Q5.039993375976563,209.20371563720704,5.740005375976563,206.55371563720703Q6.4400023759765626,203.91371563720702,7.399990375976563,200.53371563720702Q8.350010375976563,197.15371563720703,8.960010375976562,194.88371563720702Q9.570010375976562,192.62371563720703,10.550000375976563,189.78371563720702Q11.539990375976561,186.94371563720702,12.280000375976563,184.91371563720702Q13.030000375976563,182.88371563720702,14.070010375976562,180.40371563720703Q15.119990375976563,177.93371563720703,16.209960375976564,175.61371563720704Q17.309960375976562,173.28371563720702,18.489960375976562,170.47371563720702Q19.679960375976563,167.65371563720703,20.72996037597656,165.59371563720703Q21.77996037597656,163.52371563720703,22.549960375976564,160.99371563720703Q23.319960375976564,158.46371563720703,24.089960375976563,156.47371563720702Q24.86996037597656,154.48371563720704,26.34996037597656,151.55371563720703Q27.82996037597656,148.63371563720702,28.82996037597656,146.61371563720704Q29.839960375976563,144.59371563720703,30.989960375976562,142.10371563720702Q32.139960375976564,139.62371563720703,33.22996037597656,137.66371563720702Q34.32996037597656,135.70371563720704,35.739960375976565,132.12371563720703Q37.14996037597656,128.53371563720702,37.85996037597656,126.02371563720703Q38.57996037597656,123.51371563720703,39.53996037597656,120.61371563720704Q40.49996037597656,117.72371563720704,41.19996037597656,115.30371563720703Q41.889960375976564,112.89371563720704,42.90996037597656,109.80371563720703Q43.92996037597656,106.71371563720703,45.25996037597656,103.76371563720703Q46.599960375976565,100.82331563720703,47.29996037597656,98.43331563720703Q48.00996037597656,96.05331563720704,48.71996037597656,93.76331563720703Q49.42996037597656,91.47331563720704,50.669960375976565,89.01331563720703Q51.919960375976565,86.55331563720704,52.28996037597656,84.08331563720704Q52.65996037597656,81.60331563720703,53.419960375976565,79.51331563720703Q54.18996037597656,77.41331563720703,54.71996037597656,75.21331563720703Q55.239960375976565,73.00331563720704,56.569960375976564,69.89331563720702Q57.89996037597656,66.77331563720703,58.54996037597656,64.19331563720704Q59.209960375976564,61.61331563720703,60.099960375976565,58.51331563720703Q60.97996037597656,55.413315637207035,61.74996037597656,53.11331563720703Q62.51996037597656,50.81331563720703,63.239960375976565,48.28331563720703Q63.96996037597656,45.75331563720703,64.60996037597656,42.56331563720703Q65.24996037597657,39.37331563720703,66.37996037597657,35.83331563720703Q67.50996037597656,32.28331563720703,68.35996037597656,29.06331563720703Q69.20996037597656,25.833315637207033,70.52996037597656,22.39331563720703Q71.83996037597656,18.95331563720703,72.04996037597657,16.79331563720703Q72.26996037597657,14.633315637207032,73.62996037597657,12.25332563720703Q74.98996037597657,9.873325637207031,73.65996037597657,11.67332563720703Q72.33996037597656,13.483315637207031,73.89996037597656,10.733325637207031Q75.45996037597656,7.973325637207031,75.08996037597656,7.883335637207031Q74.71996037597657,7.793325637207031,75.14996037597656,6.973325637207031Q75.57996037597657,6.143325637207031,76.18996037597657,5.453335637207031Q76.79996037597657,4.753325637207031,77.55996037597656,4.223325637207031Q78.32996037597657,3.6933286372070313,79.18996037597657,3.3633266372070314Q80.05996037597656,3.023330637207031,80.97996037597656,2.9133300372070314Q81.89996037597656,2.7933273372070313,82.81996037597656,2.903327937207031Q83.73996037597657,3.013328637207031,84.60996037597656,3.343330637207031Q85.47996037597656,3.663329637207031,86.23996037597657,4.193325637207032Q87.00996037597656,4.713325637207031,87.62996037597657,5.403325637207031Q88.24996037597656,6.103325637207031,88.67996037597656,6.9133256372070315Q89.10996037597656,7.733325637207031,89.33996037597656,8.633335637207031Q89.55996037597656,9.533325637207032,89.56996037597656,10.463325637207031Q89.56996037597656,11.393325637207031,89.34996037597656,12.293325637207031Q89.12996037597657,13.19331563720703,88.69996037597656,9.673325637207032Q88.26996037597657,6.143325637207031,89.27996037597656,9.563335637207032Q90.28996037597656,12.983315637207031,90.56996037597656,16.34331563720703Q90.85996037597656,19.70331563720703,91.03996037597656,23.283315637207032Q91.21996037597657,26.86331563720703,91.70996037597656,30.13331563720703Q92.19996037597656,33.40331563720703,92.81996037597656,36.74331563720703Q93.43996037597657,40.08331563720703,93.79996037597657,42.23331563720703Q94.15996037597657,44.37331563720703,94.82996037597657,47.61331563720703Q95.48996037597657,50.843315637207034,95.80996037597656,53.03331563720703Q96.12996037597657,55.22331563720703,96.72996037597656,59.25331563720703Q97.32996037597657,63.29331563720703,98.15996037597657,66.67331563720703Q98.98996037597657,70.05331563720704,99.75996037597656,73.47331563720704Q100.52996037597656,76.89331563720702,101.21996037597657,80.50331563720704Q101.89996037597656,84.10331563720703,102.54996037597657,87.81331563720703Q103.18996037597657,91.51331563720703,103.85996037597656,94.88331563720703Q104.52996037597656,98.25331563720704,105.18996037597657,101.90331563720703Q105.84976037597656,105.54371563720703,106.72976037597657,108.89371563720704Q107.59976037597656,112.25371563720704,108.62976037597656,115.50371563720704Q109.64976037597657,118.75371563720704,110.61976037597657,121.00371563720704Q111.58976037597657,123.27371563720703,112.99976037597656,126.87371563720703Q114.39976037597657,130.483715637207,115.50976037597657,133.26371563720704Q116.61976037597657,136.05371563720703,117.55976037597657,138.05371563720703Q118.48976037597656,140.05371563720703,119.58976037597657,142.74371563720703Q120.68976037597656,145.42371563720704,121.57976037597656,147.79371563720704Q122.46976037597656,150.17371563720704,123.79976037597656,153.74371563720703Q125.13976037597656,157.30371563720703,126.24976037597656,161.09371563720703Q127.35976037597656,164.88371563720702,128.34976037597656,167.10371563720702Q129.34976037597656,169.31371563720703,130.39976037597657,171.75371563720702Q131.45976037597654,174.18371563720703,132.35976037597658,176.28371563720702Q133.26976037597655,178.37371563720703,134.68976037597656,181.52371563720703Q136.10976037597655,184.67371563720704,137.31976037597656,186.76371563720704Q138.52976037597657,188.85371563720702,139.51976037597657,191.56371563720703Q140.50976037597655,194.27371563720703,141.79976037597658,196.19371563720702Q143.07976037597658,198.12371563720703,144.03976037597656,200.04371563720704Q145.00976037597655,201.97371563720702,146.27976037597657,203.79371563720704Q147.54976037597658,205.60371563720702,148.64976037597657,207.78371563720702Q149.74976037597656,209.97371563720702,150.89976037597657,212.06371563720703Q152.04976037597658,214.15371563720703,152.94976037597655,216.40371563720703Q153.84976037597656,218.66371563720702,154.22976037597655,220.13371563720702Q154.60976037597655,221.60371563720702,154.79976037597658,222.82371563720704Q154.98976037597657,224.05371563720703,154.77976037597657,225.27371563720703Q154.56976037597656,226.49371563720703,153.97976037597655,227.58371563720704Q153.39976037597657,228.67371563720704,152.48976037597657,229.51371563720704Q151.58976037597657,230.36371563720704,150.45976037597657,230.87371563720703Q149.32976037597658,231.38371563720702,148.09976037597656,231.50371563720702Q146.86976037597657,231.63371563720702,145.65976037597656,231.35371563720702Q144.44976037597655,231.08371563720704,143.39976037597657,230.43371563720703Q142.33976037597657,229.79371563720704,141.54976037597658,228.84371563720703Q140.74976037597656,227.89371563720704,140.29976037597658,226.74371563720703Q139.84976037597656,225.58371563720704,139.79976037597658,224.35371563720702Q139.73976037597657,223.11371563720704,140.07976037597658,221.92371563720704Q140.41976037597655,220.73371563720704,141.11976037597657,219.71371563720703Q141.81976037597656,218.69371563720702,142.80976037597657,217.95371563720704Q143.79976037597658,217.21371563720703,144.97976037597655,216.82371563720704Q146.15976037597656,216.43371563720703,147.38976037597655,216.44371563720702Q148.62976037597656,216.45371563720704,149.79976037597658,216.85371563720702Q150.96976037597656,217.26371563720704,151.94976037597655,218.01371563720704Q152.92976037597657,218.77371563720703,153.61976037597657,219.80371563720703Q154.30976037597657,220.83371563720704,154.62976037597656,222.03371563720702Q154.94976037597655,223.22371563720702,154.87976037597656,224.46371563720703Q154.79976037597658,225.69371563720702,154.32976037597658,226.84371563720703Q153.86976037597657,227.98371563720704,153.05976037597657,228.92371563720704Q152.24976037597656,229.86371563720704,151.17976037597657,230.49371563720703Q150.11976037597657,231.12371563720703,148.90976037597656,231.38371563720702Q147.69976037597655,231.64371563720704,146.46976037597656,231.49371563720703Q145.23976037597657,231.35371563720702,144.11976037597657,230.82371563720704Q142.99976037597656,230.29371563720704,142.09976037597656,229.43371563720703Q141.20976037597657,228.58371563720704,140.63976037597655,227.48371563720704Q140.06976037597656,226.38371563720702,140.06976037597656,226.38371563720702L140.39976037597657,225.49371563720703Q140.73976037597657,224.59371563720703,139.22976037597655,221.53371563720702Q137.72976037597655,218.48371563720704,138.95976037597657,220.23371563720704Q140.18976037597656,221.99371563720703,138.65976037597656,219.46371563720703Q137.12976037597656,216.93371563720703,138.55976037597657,218.70371563720704Q139.98976037597657,220.47371563720702,138.43976037597656,218.21371563720703Q136.88976037597655,215.95371563720704,135.43976037597656,213.56371563720703Q133.97976037597655,211.16371563720702,132.83976037597657,209.22371563720702Q131.69976037597655,207.28371563720702,130.44976037597655,205.07371563720704Q129.19976037597655,202.85371563720702,128.02976037597657,201.06371563720703Q126.84976037597656,199.26371563720704,125.70976037597656,196.68371563720703Q124.55976037597657,194.10371563720702,123.63976037597656,191.53371563720702Q122.71976037597656,188.96371563720703,121.54976037597656,186.91371563720702Q120.38976037597656,184.86371563720704,119.29976037597656,182.01371563720704Q118.20976037597656,179.16371563720702,117.17976037597656,176.61371563720704Q116.14976037597657,174.05371563720703,115.18976037597656,171.82371563720704Q114.22976037597657,169.59371563720703,113.59976037597656,167.07371563720704Q112.96976037597656,164.55371563720703,112.35976037597656,161.81371563720703Q111.75976037597657,159.08371563720704,110.75976037597657,156.85371563720702Q109.75976037597657,154.63371563720702,109.02976037597657,152.49371563720703Q108.30976037597657,150.36371563720704,107.39976037597657,148.00371563720702Q106.49976037597656,145.65371563720703,105.40996037597657,143.07371563720704Q104.32996037597657,140.49371563720703,103.32996037597657,137.85371563720702Q102.32996037597657,135.22371563720702,101.12996037597657,132.10371563720702Q99.91996037597656,128.983715637207,98.53996037597656,125.48371563720703Q97.16996037597656,121.97371563720704,96.38996037597656,119.31371563720703Q95.61996037597656,116.64371563720704,94.73996037597657,114.15371563720703Q93.84996037597656,111.67371563720702,93.16996037597656,108.02371563720703Q92.49996037597656,104.38371563720703,91.82996037597657,100.87331563720703Q91.16996037597656,97.37331563720703,90.48996037597657,93.80331563720704Q89.80996037597656,90.24331563720703,89.12996037597657,86.55331563720704Q88.44996037597656,82.87331563720703,87.77996037597656,79.65331563720703Q87.11996037597656,76.43331563720703,86.35996037597656,73.35331563720703Q85.59996037597656,70.26331563720703,84.97996037597656,67.86331563720704Q84.35996037597656,65.45331563720703,83.61996037597656,61.43331563720703Q82.87996037597657,57.413315637207035,82.16996037597656,53.913315637207035Q81.46996037597657,50.40331563720703,80.65996037597657,46.79331563720703Q79.84996037597656,43.19331563720703,79.11996037597656,39.97331563720703Q78.38996037597656,36.75331563720703,77.76996037597657,34.35331563720703Q77.14996037597656,31.96331563720703,76.83996037597656,29.75331563720703Q76.52996037597656,27.54331563720703,76.10996037597656,23.82331563720703Q75.69996037597656,20.103315637207032,76.06996037597656,17.96331563720703Q76.43996037597657,15.813315637207031,75.57996037597657,11.803325637207031Q74.71996037597657,7.793325637207031,75.14996037597656,6.973325637207031Q75.57996037597657,6.143325637207031,76.18996037597657,5.453335637207031Q76.79996037597657,4.753325637207031,77.55996037597656,4.223325637207031Q78.32996037597657,3.6933286372070313,79.18996037597657,3.3633266372070314Q80.05996037597656,3.033325637207031,80.97996037597656,2.9133300372070314Q81.89996037597656,2.7933273372070313,82.81996037597656,2.903327937207031Q83.73996037597657,3.013328637207031,84.60996037597656,3.343330637207031Q85.47996037597656,3.663329637207031,86.23996037597657,4.193325637207032Q87.00996037597656,4.713325637207031,87.62996037597657,5.403325637207031Q88.24996037597656,6.093325637207031,88.67996037597656,6.9133256372070315Q89.10996037597656,7.733325637207031,89.33996037597656,8.633335637207031Q89.55996037597656,9.533325637207032,89.56996037597656,10.463325637207031Q89.56996037597656,11.393325637207031,89.34996037597656,12.293325637207031Q89.12996037597657,13.19331563720703,88.11996037597656,15.383315637207032Q87.09996037597656,17.57331563720703,86.32996037597657,19.903315637207033Q85.55996037597656,22.23331563720703,84.83996037597656,24.81331563720703Q84.11996037597656,27.39331563720703,83.60996037597656,30.013315637207032Q83.09996037597656,32.64331563720703,82.23996037597657,35.453315637207034Q81.36996037597656,38.26331563720703,80.37996037597657,40.89331563720703Q79.38996037597656,43.53331563720703,78.93996037597657,45.92331563720703Q78.49996037597656,48.32331563720703,77.84996037597656,50.98331563720703Q77.18996037597657,53.64331563720703,76.66996037597656,55.74331563720703Q76.14996037597656,57.85331563720703,74.91996037597656,61.203315637207034Q73.67996037597656,64.55331563720702,72.87996037597657,67.00331563720704Q72.07996037597657,69.45331563720703,71.02996037597656,71.80331563720704Q69.96996037597657,74.16331563720703,69.50996037597656,76.60331563720703Q69.04996037597655,79.03331563720702,68.30996037597657,81.16331563720703Q67.55996037597657,83.28331563720702,66.60996037597656,86.22331563720704Q65.65996037597657,89.16331563720703,64.30996037597657,92.82331563720703Q62.959960375976564,96.47331563720704,62.18996037597656,98.99331563720703Q61.419960375976565,101.50331563720704,60.51996037597656,104.24371563720703Q59.61996037597656,106.98371563720703,58.379960375976566,110.02371563720703Q57.139960375976564,113.06371563720703,56.17996037597656,116.05371563720703Q55.209960375976564,119.04371563720703,54.489960375976565,121.73371563720703Q53.75996037597656,124.42371563720702,53.029960375976565,126.49371563720703Q52.29996037597656,128.56371563720703,51.51996037597656,131.09371563720703Q50.72996037597656,133.62371563720703,49.44996037597656,136.85371563720702Q48.15996037597656,140.08371563720704,46.69996037597656,142.94371563720702Q45.239960375976565,145.79371563720704,44.33996037597656,147.77371563720703Q43.44996037597656,149.74371563720703,42.18996037597656,152.46371563720703Q40.93996037597656,155.18371563720703,39.889960375976564,157.32371563720704Q38.83996037597656,159.45371563720704,37.379960375976566,162.99371563720703Q35.91996037597656,166.53371563720702,35.24996037597656,168.90371563720703Q34.57996037597656,171.28371563720702,33.61996037597656,173.20371563720704Q32.65996037597657,175.13371563720702,31.57996037597656,177.93371563720703Q30.499960375976563,180.72371563720702,29.159960375976564,183.75371563720702Q27.819960375976564,186.77371563720703,26.999960375976563,188.94371563720702Q26.179960375976563,191.11371563720704,25.129960375976562,194.41371563720702Q24.069960375976564,197.71371563720703,23.41996037597656,200.05371563720703Q22.769960375976563,202.39371563720704,22.11996037597656,204.70371563720704Q21.469960375976562,207.02371563720703,20.90996037597656,209.20371563720704Q20.349960375976565,211.39371563720704,19.469960375976562,214.07371563720704Q18.589960375976563,216.76371563720704,14.690000375976563,218.61371563720704Q10.780000375976563,220.45371563720704,8.060000375976562,219.43371563720703Q5.339996375976562,218.40371563720703,6.1300053759765625,212.68371563720703Q6.920000375976563,206.95371563720704,8.530000375976563,205.44371563720702Q10.130000375976563,203.93371563720703,12.119990375976563,202.60371563720702Q14.100010375976563,201.27371563720703,16.339960375976563,199.66371563720702Q18.57996037597656,198.05371563720703,20.749960375976563,196.89371563720704Q22.91996037597656,195.74371563720703,24.769960375976563,194.21371563720703Q26.609960375976563,192.67371563720704,28.57996037597656,191.82371563720704Q30.549960375976564,190.97371563720702,28.749960375976563,192.33371563720704Q26.93996037597656,193.69371563720702,28.799960375976564,192.11371563720704Q30.659960375976564,190.54371563720704,34.069960375976564,188.29371563720704Q37.46996037597656,186.04371563720704,40.279960375976565,185.27371563720703Q43.08996037597656,184.50371563720702,45.50996037597656,182.55371563720703Q47.92996037597656,180.59371563720703,50.43996037597656,179.61371563720704Q52.93996037597656,178.62371563720703,51.25996037597656,180.07371563720704Q49.569960375976564,181.52371563720703,52.139960375976564,179.95371563720704Q54.709960375976564,178.38371563720702,57.709960375976564,176.23371563720704Q60.71996037597656,174.08371563720704,63.36996037597656,172.84371563720703Q66.01996037597655,171.59371563720703,68.13996037597656,170.55371563720703Q70.24996037597656,169.51371563720704,73.71996037597657,168.13371563720702Q77.17996037597656,166.75371563720702,79.24996037597656,165.75371563720702Q81.32996037597657,164.75371563720702,84.09996037597656,163.63371563720702Q86.86996037597656,162.50371563720702,89.10996037597656,161.43371563720703Q91.34996037597656,160.37371563720703,93.62996037597657,159.51371563720704Q95.91996037597656,158.65371563720703,99.00996037597656,157.44371563720702Q102.08996037597656,156.24371563720703,104.31996037597656,155.32371563720704Q106.54976037597656,154.40371563720703,108.67976037597656,153.49371563720703Q110.80976037597657,152.58371563720704,113.30976037597657,152.05371563720703Q115.80976037597657,151.52371563720703,118.13976037597656,150.62371563720703Q120.45976037597656,149.71371563720703,123.08976037597657,148.68371563720703Q125.71976037597656,147.64371563720704,127.65976037597656,146.72371563720702Q129.59976037597656,145.81371563720703,132.88976037597655,144.77371563720703Q136.18976037597656,143.74371563720703,139.17976037597657,142.25371563720702Q142.17976037597657,140.76371563720704,144.20976037597657,139.80371563720703Q146.23976037597657,138.83371563720704,150.04976037597658,136.99371563720703Q153.85976037597655,135.15371563720703,157.10976037597655,133.37371563720703Q160.34976037597656,131.59371563720703,163.91976037597655,129.69371563720705Q167.48976037597657,127.80371563720703,170.65976037597656,125.74371563720703Q173.82976037597658,123.69371563720703,176.10976037597655,122.59371563720703Q178.39976037597657,121.48371563720703,180.88976037597655,119.72371563720704Q183.38976037597655,117.96371563720703,184.95976037597657,116.66371563720703Q186.52976037597657,115.37371563720703,187.05976037597657,115.01371563720703Q187.57976037597658,114.65371563720703,188.17976037597657,114.43371563720703Q188.76976037597657,114.21371563720703,189.40976037597656,114.14371563720704Q190.02976037597657,114.06371563720703,190.65976037597656,114.14371563720704Q191.28976037597656,114.22371563720704,191.87976037597656,114.45371563720703Q192.46976037597656,114.68371563720703,192.98976037597657,115.05371563720703Q193.51976037597657,115.41371563720703,193.92976037597657,115.89371563720704Q194.34976037597656,116.37371563720703,194.63976037597655,116.93371563720703Q194.93976037597656,117.50371563720704,195.07976037597658,118.11371563720704Q195.22976037597655,118.73371563720703,195.22976037597655,119.36371563720704Q195.21976037597656,119.99371563720703,195.06976037597656,120.61371563720704Q194.90976037597656,121.23371563720703,194.60976037597655,121.79371563720703Q194.31976037597656,122.35371563720703,193.88976037597655,122.82371563720703Q193.46976037597656,123.29371563720703,193.46976037597656,123.29371563720703Z" fill="#FFFFFF" fill-opacity="1" style="mix-blend-mode:passthrough"/></g></g></g></svg>