<svg xmlns="http://www.w3.org/2000/svg" xmlns:xlink="http://www.w3.org/1999/xlink" fill="none" version="1.1" width="189.6412353515625" height="228.697509765625" viewBox="0 0 189.6412353515625 228.697509765625"><g><g><path d="M187.881,120.443L186.381,121.833Q184.891,123.223,182.201,125.483Q179.511,127.743,176.811,129.393Q174.101,131.043,171.681,132.763Q169.261,134.483,167.041,135.633Q164.821,136.783,162.771,137.923Q160.711,139.053,157.461,140.913Q154.211,142.783,149.631,144.723Q145.051,146.653,141.851,148.303Q138.661,149.953,135.901,151.363Q133.151,152.773,130.401,154.003Q127.661,155.233,125.601,156.243Q123.551,157.253,120.581,158.323Q117.611,159.403,114.961,160.793Q112.321,162.173,109.481,163.213Q106.651,164.243,104.101,165.423Q101.541,166.593,98.6012,167.763Q95.6512,168.933,92.3212,170.283Q88.9912,171.633,87.0812,172.573Q85.1612,173.513,82.6112,174.613Q80.0512,175.703,77.6912,176.753Q75.3312,177.813,73.1912,178.553Q71.0512,179.293,68.8112,180.583Q66.5712,181.863,64.3912,183.063Q62.2112,184.263,60.0912,185.143Q57.9812,186.023,56.0812,187.103Q54.1712,188.193,52.3012,189.273Q50.4212,190.353,48.0212,191.843Q45.6212,193.343,43.4712,194.433Q41.3312,195.523,38.9012,197.103Q36.4712,198.693,34.5012,199.693Q32.5312,200.693,30.0112,202.013Q27.4812,203.343,29.0912,201.703Q30.7112,200.063,29.1712,202.123Q27.6312,204.193,25.3412,205.513Q23.0412,206.823,20.4712,208.783Q17.9112,210.733,15.9112,212.073Q13.9012,213.403,11.8412,214.773Q9.78123,216.143,9.58124,211.093Q9.38124,206.043,6.96124,205.213Q4.53123,204.393,1.99124,205.373Q-0.548767,206.353,0.151245,203.703Q0.851242,201.063,1.81123,197.683Q2.76125,194.303,3.37125,192.033Q3.98125,189.773,4.96124,186.933Q5.95123,184.093,6.69124,182.063Q7.44124,180.033,8.48125,177.553Q9.53123,175.083,10.6212,172.763Q11.7212,170.433,12.9012,167.623Q14.0912,164.803,15.1412,162.743Q16.1912,160.673,16.9612,158.143Q17.7312,155.613,18.5012,153.623Q19.2812,151.633,20.7612,148.703Q22.2412,145.783,23.2412,143.763Q24.2512,141.743,25.4012,139.253Q26.5512,136.773,27.6412,134.813Q28.7412,132.853,30.1512,129.273Q31.5612,125.683,32.2712,123.173Q32.9912,120.663,33.9512,117.763Q34.9112,114.873,35.6112,112.453Q36.3012,110.043,37.3212,106.953Q38.3412,103.863,39.6712,100.913Q41.0112,97.9726,41.7112,95.5826Q42.4212,93.2026,43.1312,90.9126Q43.8412,88.6226,45.0812,86.1626Q46.3312,83.7026,46.7012,81.2326Q47.0712,78.7526,47.8312,76.6626Q48.6012,74.5626,49.1312,72.3626Q49.6512,70.1526,50.9812,67.0426Q52.3112,63.9226,52.9612,61.3426Q53.6212,58.7626,54.5112,55.6626Q55.3912,52.5626,56.1612,50.2626Q56.9312,47.9626,57.6512,45.4326Q58.3812,42.9026,59.0212,39.7126Q59.6612,36.5226,60.7912,32.9826Q61.9212,29.4326,62.7712,26.2126Q63.6212,22.9826,64.9412,19.5426Q66.2512,16.1026,66.4612,13.9426Q66.6812,11.7826,68.0412,9.40261Q69.4012,7.02261,68.0712,8.82261Q66.7512,10.6326,68.3112,7.88261Q69.8712,5.12261,69.5012,5.03262Q69.1312,4.94261,69.5612,4.12261Q69.9912,3.29261,70.6012,2.60262Q71.2112,1.90261,71.9712,1.37261Q72.7412,0.842613,73.6012,0.512611Q74.4712,0.172615,75.3912,0.0626144Q76.3112,-0.0573883,77.2312,0.0526123Q78.1512,0.162613,79.0212,0.492615Q79.8912,0.812614,80.6512,1.34261Q81.4212,1.86261,82.0412,2.55261Q82.6612,3.25261,83.0912,4.06261Q83.5212,4.88261,83.7512,5.78262Q83.9712,6.68261,83.9812,7.61261Q83.9812,8.54261,83.7612,9.44261Q83.5412,10.3426,83.1112,6.82261Q82.6812,3.29261,83.6912,6.71262Q84.7012,10.1326,84.9812,13.4926Q85.2712,16.8526,85.4512,20.4326Q85.6312,24.0126,86.1212,27.2826Q86.6112,30.5526,87.2312,33.8926Q87.8512,37.2326,88.2112,39.3826Q88.5712,41.5226,89.2412,44.7626Q89.9012,47.9926,90.2212,50.1826Q90.5412,52.3726,91.1412,56.4026Q91.7412,60.4426,92.5712,63.8226Q93.4012,67.2026,94.1712,70.6226Q94.9412,74.0426,95.6312,77.6526Q96.3112,81.2526,96.9612,84.9626Q97.6012,88.6626,98.2712,92.0326Q98.9412,95.4026,99.6012,99.0526Q100.261,102.693,101.141,106.043Q102.011,109.403,103.041,112.653Q104.061,115.903,105.031,118.153Q106.001,120.423,107.411,124.023Q108.811,127.633,109.921,130.413Q111.031,133.203,111.971,135.203Q112.901,137.203,114.001,139.893Q115.101,142.573,115.991,144.943Q116.881,147.323,118.211,150.893Q119.551,154.453,120.661,158.243Q121.771,162.033,122.761,164.253Q123.761,166.463,124.811,168.903Q125.871,171.333,126.771,173.433Q127.681,175.523,129.101,178.673Q130.521,181.823,131.731,183.913Q132.941,186.003,133.931,188.713Q134.921,191.423,136.211,193.343Q137.491,195.273,138.451,197.193Q139.421,199.123,140.691,200.943Q141.961,202.753,143.061,204.933Q144.161,207.123,145.311,209.213Q146.461,211.303,147.361,213.553Q148.261,215.813,148.641,217.283Q149.021,218.753,149.211,219.973Q149.401,221.203,149.191,222.423Q148.981,223.643,148.391,224.733Q147.811,225.823,146.901,226.663Q146.001,227.513,144.871,228.023Q143.741,228.533,142.511,228.653Q141.281,228.783,140.071,228.503Q138.861,228.233,137.811,227.583Q136.751,226.943,135.961,225.993Q135.161,225.043,134.711,223.893Q134.261,222.733,134.211,221.503Q134.151,220.263,134.491,219.073Q134.831,217.883,135.531,216.863Q136.231,215.843,137.221,215.103Q138.211,214.363,139.391,213.973Q140.571,213.583,141.801,213.593Q143.041,213.603,144.211,214.003Q145.381,214.413,146.361,215.163Q147.341,215.923,148.031,216.953Q148.721,217.983,149.041,219.183Q149.361,220.373,149.291,221.613Q149.211,222.843,148.741,223.993Q148.281,225.133,147.471,226.073Q146.661,227.013,145.591,227.643Q144.531,228.273,143.321,228.533Q142.111,228.793,140.881,228.643Q139.651,228.503,138.531,227.973Q137.411,227.443,136.511,226.583Q135.621,225.733,135.051,224.633Q134.481,223.533,134.481,223.533L134.811,222.643Q135.151,221.743,133.641,218.683Q132.141,215.633,133.371,217.383Q134.601,219.143,133.071,216.613Q131.541,214.083,132.971,215.853Q134.401,217.623,132.851,215.363Q131.301,213.103,129.851,210.713Q128.391,208.313,127.251,206.373Q126.111,204.433,124.861,202.223Q123.611,200.003,122.441,198.213Q121.261,196.413,120.121,193.833Q118.971,191.253,118.051,188.683Q117.131,186.113,115.961,184.063Q114.801,182.013,113.711,179.163Q112.621,176.313,111.591,173.763Q110.561,171.203,109.601,168.973Q108.641,166.743,108.011,164.223Q107.381,161.703,106.771,158.963Q106.171,156.233,105.171,154.003Q104.171,151.783,103.441,149.643Q102.721,147.513,101.811,145.153Q100.911,142.803,99.8212,140.223Q98.7412,137.643,97.7412,135.003Q96.7412,132.373,95.5412,129.253Q94.3312,126.133,92.9512,122.633Q91.5812,119.123,90.8012,116.463Q90.0312,113.793,89.1512,111.303Q88.2612,108.823,87.5812,105.173Q86.9112,101.533,86.2412,98.0226Q85.5812,94.5226,84.9012,90.9526Q84.2212,87.3926,83.5412,83.7026Q82.8612,80.0226,82.1912,76.8026Q81.5312,73.5826,80.7712,70.5026Q80.0112,67.4126,79.3912,65.0126Q78.7712,62.6026,78.0312,58.5826Q77.2912,54.5626,76.5812,51.0626Q75.8812,47.5526,75.0712,43.9426Q74.2612,40.3426,73.5312,37.1226Q72.8012,33.9026,72.1812,31.5026Q71.5612,29.1126,71.2512,26.9026Q70.9412,24.6926,70.5212,20.9726Q70.1112,17.2526,70.4812,15.1126Q70.8512,12.9626,69.9912,8.95261Q69.1312,4.94261,69.5612,4.12261Q69.9912,3.29261,70.6012,2.60262Q71.2112,1.90261,71.9712,1.37261Q72.7412,0.842613,73.6012,0.512611Q74.4712,0.18261,75.3912,0.0626144Q76.3112,-0.0573883,77.2312,0.0526123Q78.1512,0.162613,79.0212,0.492615Q79.8912,0.812614,80.6512,1.34261Q81.4212,1.86261,82.0412,2.55261Q82.6612,3.24261,83.0912,4.06261Q83.5212,4.88261,83.7512,5.78262Q83.9712,6.68261,83.9812,7.61261Q83.9812,8.54261,83.7612,9.44261Q83.5412,10.3426,82.5312,12.5326Q81.5112,14.7226,80.7412,17.0526Q79.9712,19.3826,79.2512,21.9626Q78.5312,24.5426,78.0212,27.1626Q77.5112,29.7926,76.6512,32.6026Q75.7812,35.4126,74.7912,38.0426Q73.8012,40.6826,73.3512,43.0726Q72.9112,45.4726,72.2612,48.1326Q71.6012,50.7926,71.0812,52.8926Q70.5612,55.0026,69.3312,58.3526Q68.0912,61.7026,67.2912,64.1526Q66.4912,66.6026,65.4412,68.9526Q64.3812,71.3126,63.9212,73.7526Q63.4612,76.1826,62.7212,78.3126Q61.9712,80.4326,61.0212,83.3726Q60.0712,86.3126,58.7212,89.9726Q57.3712,93.6226,56.6012,96.1426Q55.8312,98.6526,54.9312,101.393Q54.0312,104.133,52.7912,107.173Q51.5512,110.213,50.5912,113.203Q49.6212,116.193,48.9012,118.883Q48.1712,121.573,47.4412,123.643Q46.7112,125.713,45.9312,128.243Q45.1412,130.773,43.8612,134.003Q42.5712,137.233,41.1112,140.093Q39.6512,142.943,38.7512,144.923Q37.8612,146.893,36.6012,149.613Q35.3512,152.333,34.3012,154.473Q33.2512,156.603,31.7912,160.143Q30.3312,163.683,29.6612,166.053Q28.9912,168.433,28.0312,170.353Q27.0712,172.283,25.9912,175.083Q24.9112,177.873,23.5712,180.903Q22.2312,183.923,21.4112,186.093Q20.5912,188.263,19.5412,191.563Q18.4812,194.863,17.8312,197.203Q17.1812,199.543,16.5312,201.853Q15.8812,204.173,15.3212,206.353Q14.7612,208.543,13.8812,211.223Q13.0012,213.913,9.10124,215.763Q5.19124,217.603,2.47124,216.583Q-0.248764,215.553,0.541245,209.833Q1.33124,204.103,2.94124,202.593Q4.54124,201.083,6.53123,199.753Q8.51125,198.423,10.7512,196.813Q12.9912,195.203,15.1612,194.043Q17.3312,192.893,19.1812,191.363Q21.0212,189.823,22.9912,188.973Q24.9612,188.123,23.1612,189.483Q21.3512,190.843,23.2112,189.263Q25.0712,187.693,28.4812,185.443Q31.8812,183.193,34.6912,182.423Q37.5012,181.653,39.9212,179.703Q42.3412,177.743,44.8512,176.763Q47.3512,175.773,45.6712,177.223Q43.9812,178.673,46.5512,177.103Q49.1212,175.533,52.1212,173.383Q55.1312,171.233,57.7812,169.993Q60.4312,168.743,62.5512,167.703Q64.6612,166.663,68.1312,165.283Q71.5912,163.903,73.6612,162.903Q75.7412,161.903,78.5112,160.783Q81.2812,159.653,83.5212,158.583Q85.7612,157.523,88.0412,156.663Q90.3312,155.803,93.4212,154.593Q96.5012,153.393,98.7312,152.473Q100.961,151.553,103.091,150.643Q105.221,149.733,107.721,149.203Q110.221,148.673,112.551,147.773Q114.871,146.863,117.501,145.833Q120.131,144.793,122.071,143.873Q124.011,142.963,127.301,141.923Q130.601,140.893,133.591,139.403Q136.591,137.913,138.621,136.953Q140.651,135.983,144.461,134.143Q148.271,132.303,151.521,130.523Q154.761,128.743,158.331,126.843Q161.901,124.953,165.071,122.893Q168.241,120.843,170.521,119.743Q172.811,118.633,175.301,116.873Q177.801,115.113,179.371,113.813Q180.941,112.523,181.471,112.163Q181.991,111.803,182.591,111.583Q183.181,111.363,183.821,111.293Q184.441,111.213,185.071,111.293Q185.701,111.373,186.291,111.603Q186.881,111.833,187.401,112.203Q187.931,112.563,188.341,113.043Q188.761,113.523,189.051,114.083Q189.351,114.653,189.491,115.263Q189.641,115.883,189.641,116.513Q189.631,117.143,189.481,117.763Q189.321,118.383,189.021,118.943Q188.731,119.503,188.301,119.973Q187.881,120.443,187.881,120.443Z" fill="#1E1E1E" fill-opacity="1" style="mix-blend-mode:passthrough"/></g></g></svg>