<svg xmlns="http://www.w3.org/2000/svg" xmlns:xlink="http://www.w3.org/1999/xlink" fill="none" version="1.1" width="57" height="51.000030517578125" viewBox="0 0 57 51.000030517578125"><g><g><path d="M6,20.000030517578125L0,20.000030517578125L0,45.000030517578125Q0,45.147330517578126,0.007229999999999848,45.29443051757812Q0.014450000000000074,45.44153051757813,0.028889999999999638,45.58813051757812Q0.04333000000000009,45.73473051757813,0.06494,45.88043051757813Q0.0865499999999999,46.026130517578125,0.11528999999999989,46.17053051757813Q0.14402000000000026,46.31503051757812,0.1798099999999998,46.45793051757812Q0.21560000000000024,46.600830517578125,0.2583599999999997,46.74173051757813Q0.30112000000000005,46.882730517578125,0.35074000000000005,47.02133051757812Q0.40036000000000005,47.16003051757812,0.4567199999999998,47.29613051757812Q0.51309,47.43223051757813,0.5760699999999996,47.565330517578126Q0.6390399999999996,47.69853051757812,0.7084700000000002,47.82843051757813Q0.7779100000000003,47.958330517578126,0.8536299999999999,48.08463051757812Q0.9293500000000003,48.21093051757812,1.0111800000000004,48.33343051757812Q1.0930099999999996,48.455930517578125,1.1807600000000003,48.57423051757813Q1.2685000000000004,48.69253051757812,1.3619399999999997,48.80643051757812Q1.45538,48.920230517578126,1.55429,49.02943051757812Q1.6532099999999996,49.138530517578126,1.7573600000000003,49.24263051757812Q1.86151,49.34683051757813,1.97065,49.44573051757813Q2.07978,49.54463051757813,2.19364,49.638130517578126Q2.3075,49.73153051757812,2.4258,49.81923051757812Q2.54411,49.90703051757812,2.66658,49.98883051757812Q2.78905,50.070630517578124,2.91538,50.146430517578125Q3.04172,50.22213051757812,3.17162,50.291530517578124Q3.30152,50.36103051757813,3.43467,50.42393051757813Q3.56782,50.486930517578124,3.7039,50.54333051757813Q3.83998,50.59963051757812,3.97866,50.64933051757812Q4.11734,50.69893051757812,4.25829,50.74163051757812Q4.39924,50.78443051757813,4.54212,50.820230517578125Q4.6850000000000005,50.85603051757813,4.82946,50.88473051757812Q4.97392,50.91343051757812,5.119617,50.93513051757812Q5.265315,50.95673051757812,5.411897,50.971130517578125Q5.55848,50.98553051757813,5.705594,50.99283051757813Q5.852708,51.000030517578125,6,51.000030517578125L51,51.000030517578125Q51.1473,51.000030517578125,51.2944,50.99283051757813Q51.4415,50.98553051757813,51.5881,50.971130517578125Q51.7347,50.95673051757812,51.8804,50.93513051757812Q52.0261,50.91343051757812,52.1705,50.88473051757812Q52.315,50.85603051757813,52.4579,50.820230517578125Q52.6008,50.78443051757813,52.7417,50.74163051757812Q52.8827,50.69893051757812,53.0213,50.64933051757812Q53.16,50.59963051757812,53.2961,50.54333051757813Q53.4322,50.486930517578124,53.5653,50.42393051757813Q53.6985,50.36103051757813,53.8284,50.291530517578124Q53.9583,50.22213051757812,54.0846,50.146430517578125Q54.2109,50.070630517578124,54.3334,49.98883051757812Q54.4559,49.90703051757812,54.5742,49.81923051757812Q54.6925,49.73153051757812,54.8064,49.638130517578126Q54.9202,49.54463051757813,55.0294,49.44573051757813Q55.1385,49.34683051757813,55.2426,49.24263051757812Q55.3468,49.138530517578126,55.4457,49.02943051757812Q55.5446,48.920230517578126,55.6381,48.80643051757812Q55.7315,48.69253051757812,55.8192,48.57423051757813Q55.907,48.455930517578125,55.9888,48.33343051757812Q56.0706,48.21093051757812,56.1464,48.08463051757812Q56.2221,47.958330517578126,56.2915,47.82843051757813Q56.361,47.69853051757812,56.4239,47.565330517578126Q56.4869,47.43223051757813,56.5433,47.29613051757812Q56.5996,47.16003051757812,56.6493,47.02133051757812Q56.6989,46.882730517578125,56.7416,46.74173051757813Q56.7844,46.600830517578125,56.8202,46.45793051757812Q56.856,46.31503051757812,56.8847,46.17053051757813Q56.9134,46.026130517578125,56.9351,45.88043051757813Q56.9567,45.73473051757813,56.9711,45.58813051757812Q56.9855,45.44153051757813,56.9928,45.29443051757812Q57,45.147330517578126,57,45.000030517578125L57,20.000030517578125L51,20.000030517578125L51,45.000030517578125L6,45.000030517578125L6,20.000030517578125Z" fill-rule="evenodd" fill="#FFFFFF" fill-opacity="1"/></g><g><g><rect x="25" y="0.000030517578125" width="8" height="40" rx="4" fill="#FFFFFF" fill-opacity="1"/></g><g transform="matrix(0.7071067690849304,0.7071067690849304,-0.7071067690849304,0.7071067690849304,8.005660581778443,-19.32731218779975)"><rect x="27.33296012878418" y="0.000030517578125" width="8.642243385314941" height="25.926729202270508" rx="4.321121692657471" fill="#FFFFFF" fill-opacity="1"/></g><g transform="matrix(0.7071067690849304,-0.7071067690849304,0.7071067690849304,0.7071067690849304,2.8711681079717835,19.153611035335047)"><rect x="24.55603790283203" y="6.110999584197998" width="8.642243385314941" height="25.926729202270508" rx="4.321121692657471" fill="#FFFFFF" fill-opacity="1"/></g></g></g></svg>